<svg width="49" height="49" viewBox="0 0 49 49" fill="none" xmlns="http://www.w3.org/2000/svg">
<path d="M41.1261 41.0769C45.5759 36.61 48.0704 30.5597 48.0618 24.2548C48.057 23.8657 47.8993 23.494 47.6224 23.2206C47.3454 22.9469 46.9721 22.7937 46.5829 22.7937C46.1936 22.7937 45.8202 22.9469 45.5433 23.2206C45.2663 23.494 45.1086 23.8657 45.1038 24.2548C45.1101 29.7801 42.9229 35.0822 39.0228 38.9961C37.1295 40.9398 34.8661 42.4847 32.3659 43.5397C29.866 44.5945 27.18 45.1379 24.4665 45.1379C21.7531 45.1379 19.0671 44.5945 16.5671 43.5397C14.067 42.4847 11.8036 40.9398 9.91027 38.9961C6.01544 35.0783 3.82929 29.7784 3.82929 24.254C3.82929 18.7294 6.01544 13.4295 9.91027 9.51165C11.7926 7.58284 14.039 6.04686 16.5194 4.99276C18.9997 3.93869 21.6647 3.38746 24.3597 3.37106C24.9351 3.38908 25.4807 3.63122 25.8802 4.04581C26.2797 4.46038 26.5014 5.01463 26.4979 5.59033C26.4947 6.16604 26.2666 6.71766 25.8623 7.12759C25.4581 7.53749 24.9096 7.77325 24.334 7.78458C24.2807 7.78468 24.2274 7.78764 24.1745 7.79343C20.0743 7.92547 16.1839 9.63748 13.3167 12.5715C10.2888 15.6196 8.58937 19.7417 8.58937 24.0381C8.58937 28.3347 10.2888 32.4566 13.3167 35.5048C14.796 37.0201 16.5634 38.2242 18.5149 39.0463C20.4664 39.8684 22.5627 40.2919 24.6802 40.2919C26.7977 40.2919 28.8941 39.8684 30.8456 39.0463C32.797 38.2242 34.5644 37.0201 36.0437 35.5048C39.0763 32.4598 40.7764 28.3358 40.7704 24.0381C40.7766 23.3613 40.6487 22.6896 40.394 22.0624C40.1391 21.4353 39.7627 20.8648 39.2861 20.3839C38.8096 19.903 38.2426 19.5213 37.6177 19.2608C36.9929 19.0003 36.3228 18.8662 35.6457 18.8662C34.9686 18.8662 34.2985 19.0003 33.6737 19.2608C33.0488 19.5213 32.4818 19.903 32.0053 20.3839C31.5287 20.8648 31.1523 21.4353 30.8974 22.0624C30.6427 22.6896 30.5148 23.3613 30.521 24.0381C30.521 24.0813 30.5238 24.1219 30.5273 24.1633C30.5238 24.2048 30.521 24.2462 30.521 24.2885C30.5307 25.4687 30.1895 26.6251 29.5407 27.6112C28.8921 28.5971 27.9652 29.3681 26.8776 29.8265C25.79 30.2847 24.5906 30.4097 23.4321 30.1854C22.2733 29.961 21.2073 29.3976 20.3694 28.5665C19.5314 27.7353 18.9592 26.6741 18.7254 25.5172C18.4916 24.3604 18.6067 23.1601 19.0561 22.0689C19.5055 20.9775 20.269 20.0443 21.2496 19.3875C22.2303 18.7308 23.3839 18.3802 24.5641 18.3801C24.7599 18.3825 24.9541 18.346 25.1356 18.2727C25.3171 18.1995 25.4822 18.0909 25.6214 17.9533C25.7607 17.8158 25.8714 17.6519 25.9467 17.4713C26.0222 17.2907 26.0611 17.0969 26.0611 16.9012C26.0611 16.7054 26.0222 16.5116 25.9467 16.331C25.8714 16.1504 25.7607 15.9865 25.6214 15.849C25.4822 15.7114 25.3171 15.6028 25.1356 15.5296C24.9541 15.4563 24.7599 15.4198 24.5641 15.4222C22.8126 15.4319 21.1032 15.9602 19.6516 16.9403C18.2 17.9205 17.0712 19.3087 16.4076 20.9297C15.7441 22.5506 15.5755 24.3319 15.9232 26.0486C16.2709 27.7653 17.1192 29.3404 18.3612 30.5756C19.6031 31.8106 21.1831 32.6502 22.9018 32.9884C24.6202 33.3264 26.4006 33.1479 28.0178 32.4754C29.635 31.8029 31.017 30.6665 31.9891 29.2094C32.9612 27.7524 33.4798 26.04 33.4798 24.2885C33.4798 24.2453 33.477 24.2048 33.4736 24.1633C33.477 24.1219 33.4798 24.0804 33.4798 24.0381C33.474 23.75 33.5258 23.4636 33.6322 23.1955C33.7384 22.9277 33.8973 22.6836 34.0988 22.4779C34.3006 22.272 34.5415 22.1084 34.8072 21.9968C35.0729 21.8852 35.3584 21.8277 35.6466 21.8277C35.9347 21.8277 36.2202 21.8852 36.4859 21.9968C36.7516 22.1084 36.9925 22.272 37.1943 22.4779C37.3959 22.6836 37.5547 22.9277 37.6609 23.1955C37.7673 23.4636 37.8191 23.75 37.8133 24.0381C37.8172 27.5566 36.4244 30.9326 33.9409 33.4248C32.7367 34.662 31.2969 35.6451 29.7065 36.3165C28.116 36.988 26.4071 37.3337 24.6806 37.3337C22.9544 37.3337 21.2455 36.988 19.6551 36.3165C18.0646 35.6451 16.6248 34.662 15.4206 33.4248C12.9404 30.9305 11.5483 27.5557 11.5483 24.0381C11.5483 20.5205 12.9404 17.1459 15.4206 14.6514C16.6258 13.4159 18.0656 12.4337 19.6557 11.7624C21.2457 11.0911 22.9538 10.7444 24.6798 10.7425C24.8125 10.7422 24.9446 10.7239 25.0726 10.6881C26.3317 10.495 27.475 9.84386 28.2835 8.85954C29.092 7.8752 29.5086 6.62703 29.4533 5.35448C29.3981 4.0819 28.8747 2.87454 27.9839 1.96401C27.0932 1.05348 25.8977 0.50388 24.6267 0.420653C24.5736 0.41487 24.5201 0.411916 24.4665 0.411804C24.4368 0.411804 24.4072 0.411804 24.3774 0.411804C24.3627 0.411804 24.3485 0.411804 24.3342 0.411804C24.32 0.411804 24.3053 0.41353 24.2911 0.413961C21.2163 0.438142 18.1768 1.07071 15.3477 2.2752C12.5186 3.47968 9.95597 5.23227 7.80744 7.43191C3.365 11.9034 0.871696 17.9507 0.871696 24.254C0.871696 30.5571 3.365 36.6042 7.80744 41.0758C9.97582 43.2978 12.5668 45.0637 15.4279 46.2691C18.2889 47.4747 21.3623 48.0959 24.467 48.0959C27.5717 48.0959 30.6449 47.4747 33.5062 46.2691C36.3672 45.0637 38.9581 43.2978 41.1265 41.0758L41.1261 41.0769Z" fill="url(#paint0_linear_1_901)"/>
<defs>
<linearGradient id="paint0_linear_1_901" x1="7.71426" y1="40.991" x2="37.7023" y2="11.6437" gradientUnits="userSpaceOnUse">
<stop stop-color="#41287B"/>
<stop offset="0.123" stop-color="#462779"/>
<stop offset="0.284" stop-color="#572775"/>
<stop offset="0.465" stop-color="#72266E"/>
<stop offset="0.663" stop-color="#982565"/>
<stop offset="0.87" stop-color="#C82459"/>
<stop offset="0.99" stop-color="#E72452"/>
</linearGradient>
</defs>
</svg>
